<?xml version="1.0" encoding="utf-8"?>
<!-- Generator: Adobe Illustrator 16.0.0, SVG Export Plug-In . SVG Version: 6.00 Build 0)  -->
<!DOCTYPE svg PUBLIC "-//W3C//DTD SVG 1.1//EN" "http://www.w3.org/Graphics/SVG/1.1/DTD/svg11.dtd">
<svg version="1.1" id="Calque_1" xmlns="http://www.w3.org/2000/svg" xmlns:xlink="http://www.w3.org/1999/xlink" x="0px" y="0px"
	 width="55.587px" height="70px" viewBox="37.674 47.441 55.587 70" enable-background="new 37.674 47.441 55.587 70"
	 xml:space="preserve">
<path fill="#35B8BE" d="M85.043,55.643c-5.4-5.358-11.982-8.118-19.562-8.202l-0.042,0l-0.041,0.001
	c-7.586,0.125-14.15,2.885-19.508,8.201l-0.011,0.011c-5.446,5.459-8.207,12.155-8.207,19.907
	c0.014,7.223,2.379,13.852,7.031,19.705c0.003,0.004,0.007,0.009,0.01,0.014c0.001,0.001,0.002,0.002,0.003,0.004l1.854,2.33
	l0.108-0.086l16.567,18.901c0.588,0.671,1.412,1.014,2.24,1.014c0.697,0,1.396-0.243,1.961-0.738
	c1.236-1.084,1.36-2.964,0.276-4.201L49.34,91.528c-3.832-4.834-5.701-10.062-5.712-15.973c0-6.196,2.114-11.329,6.464-15.692
	c4.278-4.243,9.305-6.358,15.366-6.468c6.044,0.076,11.08,2.194,15.385,6.465c4.351,4.351,6.466,9.484,6.466,15.694
	c0,5.932-1.885,11.162-5.761,15.987l-8.208,9.824c-2.33-2.947-8.396-10.712-12.618-16.126l-1.831-2.348l-0.076,0.06
	c-0.312-0.357-0.553-0.778-0.702-1.222c-0.172-0.519-0.23-1.079-0.168-1.621c0.006-0.059,0.012-0.117,0.015-0.176
	c0.069-1.267,0.527-2.198,1.481-3.016c0.911-0.777,1.865-1.072,3.094-0.956c0.031,0.003,0.063,0.006,0.094,0.008
	c0.735,0.046,1.263,0.202,1.71,0.506c0.072,0.049,0.147,0.095,0.224,0.138c0.382,0.213,0.721,0.489,1.005,0.816l7.978,9.219
	c1.075,1.244,2.956,1.379,4.199,0.303s1.379-2.956,0.303-4.199l-7.981-9.223c-0.712-0.821-1.55-1.511-2.491-2.052
	c-1.305-0.858-2.788-1.333-4.529-1.448c-2.824-0.256-5.338,0.538-7.476,2.363c-2.18,1.869-3.374,4.267-3.551,7.129
	c-0.143,1.368,0.01,2.778,0.445,4.089c0.428,1.281,1.137,2.475,2.055,3.466l16.207,21.109c0.586,0.764,1.47,1.164,2.363,1.164
	c0.633,0,1.27-0.201,1.811-0.616c0.432-0.331,0.747-0.758,0.939-1.228l0.17-0.052l10.124-12.117l0.035-0.042
	c4.706-5.848,7.092-12.49,7.092-19.74C93.261,67.795,90.499,61.099,85.043,55.643z"/>
</svg>
